<?xml version="1.0" standalone="no"?>
<!DOCTYPE svg PUBLIC "-//W3C//DTD SVG 20010904//EN"
 "http://www.w3.org/TR/2001/REC-SVG-20010904/DTD/svg10.dtd">
<svg version="1.0" xmlns="http://www.w3.org/2000/svg"
 width="256.000000pt" height="256.000000pt" viewBox="0 0 256.000000 256.000000"
 preserveAspectRatio="xMidYMid meet">
<metadata>
Created by potrace 1.14, written by Peter Selinger 2001-2017
</metadata>
<g transform="translate(0.000000,256.000000) scale(0.100000,-0.100000)"
fill="#000000" stroke="none">
<path d="M487 2193 c-4 -3 -7 -46 -7 -95 l0 -88 50 0 c60 0 114 -20 129 -48 6
-12 11 -60 11 -109 l0 -89 -51 -19 c-69 -27 -203 -109 -207 -127 -3 -16 88
-61 188 -93 60 -19 74 -28 69 -44 -5 -13 -128 28 -229 76 l-74 36 -49 -53
c-26 -29 -62 -80 -80 -114 -29 -57 -32 -68 -32 -161 0 -93 2 -105 33 -167 18
-37 57 -92 86 -123 l53 -57 59 30 c65 33 197 82 220 82 8 0 14 -6 14 -13 0 -7
-26 -21 -57 -31 -76 -23 -193 -77 -193 -88 0 -15 119 -86 209 -123 80 -33 90
-40 108 -78 57 -118 163 -219 288 -278 96 -45 161 -59 263 -59 188 1 347 79
458 226 24 33 51 78 60 101 15 40 20 43 111 79 96 38 224 110 230 130 8 24
-270 124 -385 140 l-47 6 -24 -67 c-31 -89 -111 -207 -173 -256 -27 -21 -54
-39 -59 -39 -5 0 -9 -5 -9 -11 0 -8 16 -9 53 -5 28 4 70 9 92 12 l40 5 -47
-44 c-108 -102 -283 -101 -401 3 -20 17 -37 35 -37 40 0 4 23 1 51 -6 29 -8
56 -11 60 -8 5 3 9 97 9 210 l0 204 -85 0 c-68 0 -85 3 -85 15 0 11 18 15 83
17 l82 3 3 136 3 136 -47 7 c-26 3 -64 6 -85 6 -29 0 -39 4 -39 16 0 14 12 16
83 13 l82 -4 3 219 2 219 -41 -7 c-22 -4 -58 -15 -80 -26 -21 -11 -41 -20 -44
-20 -9 0 -5 131 5 150 15 29 48 43 115 49 l60 6 0 90 0 90 -396 3 c-217 1
-398 -1 -402 -5z m753 -88 l0 -45 -112 0 c-130 0 -180 -17 -219 -75 -13 -19
-26 -35 -29 -35 -3 1 -14 15 -25 33 -11 17 -38 42 -60 54 -35 20 -54 23 -152
23 l-113 0 0 45 0 45 355 0 355 0 0 -45z m-437 -98 c69 -52 67 -36 67 -626 0
-351 4 -548 11 -583 17 -80 55 -153 114 -216 95 -103 208 -147 359 -140 80 3
102 8 167 39 85 41 161 110 199 182 14 26 29 47 33 47 18 0 -42 -89 -98 -146
-282 -287 -774 -153 -907 246 -21 63 -22 82 -25 595 -2 292 -5 540 -8 552 -3
12 -17 36 -32 54 l-27 32 56 -5 c41 -3 66 -12 91 -31z m279 -2 c-17 -19 -34
-49 -37 -67 -3 -18 -5 -287 -3 -598 4 -644 0 -617 90 -715 67 -74 137 -107
237 -113 90 -5 137 6 211 50 48 30 110 94 123 130 2 7 7 10 11 7 13 -12 -76
-120 -131 -159 -162 -116 -398 -104 -543 26 -66 59 -117 144 -135 227 -14 62
-15 147 -13 602 3 509 4 531 23 563 29 49 89 82 149 82 l48 0 -30 -35z"/>
<path d="M1494 2187 c-3 -8 -4 -49 -2 -93 l3 -79 68 -6 c93 -8 119 -33 125
-120 l5 -62 -29 6 c-78 16 -195 29 -202 22 -4 -4 4 -14 18 -23 85 -53 184
-194 225 -320 13 -40 21 -52 33 -48 10 2 58 14 107 26 108 26 288 95 306 116
11 13 9 19 -11 35 -30 23 -203 111 -247 127 l-33 11 0 81 c0 45 5 90 11 102
15 28 69 48 129 48 l51 0 -3 93 -3 92 -273 3 c-222 2 -273 0 -278 -11z m506
-82 l0 -45 -67 0 c-74 0 -122 -20 -144 -61 l-12 -23 -19 25 c-39 47 -68 59
-145 59 l-73 0 0 45 0 45 230 0 230 0 0 -45z m-255 -125 c16 -32 21 -170 6
-170 -5 0 -10 35 -12 78 -3 62 -9 84 -28 111 -23 32 -23 33 -3 22 12 -6 29
-25 37 -41z m83 10 c-17 -24 -24 -50 -29 -113 l-6 -82 -1 83 c-2 70 1 89 19
113 11 16 25 29 30 29 5 0 -1 -14 -13 -30z"/>
<path d="M1302 1644 l3 -219 85 3 c87 3 265 20 287 27 16 5 -13 90 -58 176
-61 113 -181 209 -283 226 l-36 6 2 -219z"/>
<path d="M2125 1558 c-77 -39 -144 -63 -279 -98 l-109 -28 -1 -179 -1 -179 79
-18 c106 -24 214 -60 302 -101 l73 -33 40 39 c138 133 177 312 102 463 -32 65
-115 166 -134 166 -7 -1 -39 -15 -72 -32z"/>
<path d="M1520 1408 c-52 -5 -123 -11 -158 -14 l-63 -6 3 -136 3 -137 126 -7
c69 -4 154 -12 189 -17 35 -6 66 -9 68 -6 18 18 28 198 16 289 l-7 46 -41 -2
c-22 0 -84 -5 -136 -10z"/>
<path d="M1300 876 c0 -113 4 -207 9 -210 13 -8 109 23 150 49 83 52 194 209
217 307 5 23 2 28 -18 33 -47 11 -205 25 -280 25 l-78 0 0 -204z"/>
</g>
</svg>
