<svg width="73" height="64" viewBox="0 0 73 64" fill="none" xmlns="http://www.w3.org/2000/svg">
<path d="M71.4898 55.61L41.1355 3.04571C40.1723 1.34756 38.4285 0.360992 36.5011 0.360992C34.5736 0.360992 32.8298 1.37048 31.8666 3.04571L1.51235 55.61C0.548619 57.2847 0.548619 59.3041 1.51235 60.9788C2.47608 62.6536 4.21992 63.6636 6.14678 63.6636H66.8568C68.7842 63.6636 70.5281 62.6541 71.4912 60.9788C72.4549 59.2807 72.4549 57.2847 71.4912 55.61H71.4898ZM69.1036 59.6021C68.6221 60.428 67.7956 60.9102 66.8554 60.9102H6.14535C5.2045 60.9102 4.35578 60.4286 3.89706 59.6021C3.41548 58.7762 3.41548 57.8126 3.89706 56.9866L34.2285 4.42228C34.7101 3.59639 35.5365 3.11425 36.4996 3.11425C37.4634 3.11425 38.2892 3.59584 38.7708 4.42228L69.1251 56.9866C69.5843 57.7896 69.5843 58.7756 69.1022 59.6021H69.1036Z" fill="#1C4492"/>
<path d="M53.9375 49.0929C54.3962 48.267 54.5111 47.3033 54.2589 46.3853C53.846 44.8937 52.5151 43.8384 50.9548 43.7927H50.8398C50.5184 43.7927 50.1975 43.8385 49.8761 43.9306L44.2778 45.4908C44.4156 45.2157 44.5529 44.9629 44.6679 44.7565C45.1037 43.8848 45.1958 43.7927 45.3559 43.747C48.8436 42.7375 50.9546 38.699 51.1612 35.4183C51.6662 27.5026 45.6774 20.6426 37.7616 20.1383C37.4402 20.1154 37.1193 20.1154 36.7979 20.1154C33.1266 20.1154 29.3643 21.4921 26.4961 23.9011C23.3761 26.4937 21.6322 29.981 21.5865 33.6751C21.5407 38.0345 23.2382 40.65 24.6608 42.0724C26.2896 43.7012 28.4693 44.7108 30.6491 44.8715H30.6719C30.8098 44.9865 31.0391 45.3302 31.2227 45.6288L24.202 43.5178C23.9035 43.4263 23.5826 43.38 23.284 43.3571H23.1691C21.6088 43.3571 20.2092 44.3894 19.7505 45.8811C19.4754 46.799 19.5669 47.7622 20.0256 48.5886C20.4843 49.4374 21.2187 50.0568 22.1366 50.3325L24.4542 51.0206L22.6188 51.5485C20.7376 52.0764 19.636 54.0496 20.1639 55.9307C20.5768 57.4453 21.9306 58.4776 23.4909 58.5233H23.5824C23.9038 58.5233 24.2247 58.4776 24.5233 58.3855L37.2113 54.8755L49.5321 58.5926C49.8307 58.6841 50.1515 58.7305 50.4501 58.7533H50.5879C52.1482 58.7305 53.5249 57.721 53.9606 56.2293C54.2358 55.3114 54.1442 54.3482 53.6855 53.5218C53.2268 52.673 52.4924 52.0765 51.5745 51.8008L49.968 51.2734L51.7805 50.7684C52.6985 50.5162 53.4787 49.9196 53.9374 49.0937L53.9375 49.0929ZM30.8103 42.5767C28.0805 42.3931 23.8126 40.0756 23.8812 33.6973C23.9498 27.296 30.4202 22.4087 36.7986 22.4087C37.0737 22.4087 37.3265 22.4087 37.6016 22.4316C44.2556 22.8674 49.2802 28.6035 48.8444 35.2803C48.6836 37.6665 47.1462 40.8327 44.6915 41.5209C41.9382 42.301 43.1541 45.9717 38.9555 46.7519C38.3361 46.8668 37.7624 46.9132 37.2579 46.9132C32.9215 46.9132 33.5866 42.7603 30.8104 42.5767L30.8103 42.5767ZM23.9275 56.1821C23.8125 56.205 23.6981 56.2279 23.5832 56.2279H23.5603C23.0095 56.205 22.5279 55.8378 22.3901 55.3099C22.2065 54.6448 22.5966 53.9333 23.2617 53.7496L28.562 52.2581L33.0822 53.6119L23.9275 56.1821ZM50.9332 53.9567C51.2546 54.0482 51.5297 54.2781 51.6905 54.5761C51.8512 54.8747 51.8741 55.2184 51.782 55.5399C51.6213 56.0678 51.1397 56.4349 50.566 56.4349H50.5203C50.4053 56.4349 50.2909 56.4121 50.1759 56.3892L22.8031 48.1292C22.4817 48.0377 22.2065 47.8078 22.0458 47.5098C21.7244 46.9361 21.9309 46.1789 22.5045 45.8351C22.8031 45.6515 23.1926 45.5828 23.5369 45.6972L50.9332 53.9567ZM45.8395 50.0331L41.3423 48.6793L50.4975 46.1331C50.5204 46.1331 50.5661 46.1102 50.589 46.1102C50.6119 46.1102 50.6576 46.0873 50.6805 46.0873H50.8412H50.887C51.4378 46.1102 51.9194 46.4774 52.0572 47.0053C52.1487 47.3267 52.1029 47.6704 51.9422 47.969C51.7815 48.2676 51.5064 48.474 51.185 48.5655L45.8395 50.0331Z" fill="#1C4492"/>
<path d="M37.0743 42.7828H37.12L39.8963 42.645C40.5615 42.6221 40.9978 41.957 40.7679 41.337L39.3684 37.6198C39.2077 37.2069 38.8405 36.9775 38.4504 36.9775C38.0604 36.9775 37.6932 37.184 37.5325 37.6198L36.1558 41.4741C35.927 42.1175 36.4091 42.7828 37.0743 42.7828Z" fill="#1C4492"/>
<path d="M31.3141 39.1814H31.5205C33.2187 39.1814 34.6411 37.8734 34.7555 36.153C34.8934 34.3629 33.5396 32.8031 31.75 32.6881H31.5435C29.8453 32.6881 28.4229 33.9962 28.3085 35.7166C28.1707 37.5291 29.5244 39.0664 31.3141 39.1814Z" fill="#1C4492"/>
<path d="M43.727 37.9886H43.9334C45.6316 37.9886 47.054 36.6805 47.1684 34.9601C47.2834 33.1706 45.9296 31.6103 44.14 31.4958H43.9335C42.2354 31.4958 40.813 32.8039 40.6985 34.5243C40.5841 36.3133 41.9608 37.8736 43.727 37.9886Z" fill="#1C4492"/>
</svg>
