<svg width="70" height="70" viewBox="0 0 70 70" fill="none" xmlns="http://www.w3.org/2000/svg">
<path d="M66.8547 54.7679L41.971 29.8842V8.34973H44.2616C45.0361 8.34973 45.6578 7.72797 45.6578 6.95357L45.6583 1.48774C45.6583 0.713304 45.0365 0.0915833 44.2616 0.0915833H25.7383C24.9639 0.0915833 24.3422 0.713342 24.3422 1.48774V6.95306C24.3422 7.72749 24.9639 8.34921 25.7383 8.34921H28.0289V29.8734L3.14523 54.7687C0.559789 57.3541 -0.182067 61.0631 1.22515 64.4341C2.6213 67.8157 5.76333 69.9105 9.41811 69.9105H60.5818C64.2366 69.9105 67.378 67.8162 68.7748 64.4341C70.182 61.0521 69.4402 57.3542 66.8547 54.7687L66.8547 54.7679ZM27.1351 2.88416H42.8658V5.55703H40.5752L29.4256 5.55653H27.135L27.1351 2.88416ZM66.2003 63.3642C65.4474 65.1752 63.5822 67.1169 60.5823 67.1169H9.41863C6.4188 67.1169 4.55297 65.1752 3.8007 63.3642C3.04785 61.5531 3.00416 58.8586 5.12062 56.7422L30.4183 31.4445C30.68 31.1828 30.8327 30.8227 30.8327 30.4516V8.35015H39.1888V30.4516C39.1888 30.8227 39.3304 31.1823 39.6031 31.4445L64.9008 56.7422C66.9962 58.8586 66.9525 61.5531 66.2001 63.3642H66.2003Z" fill="#1C4492"/>
<path d="M48.1783 43.9884C47.9167 43.7268 47.5566 43.5741 47.1965 43.5741H22.8039C22.4327 43.5741 22.0731 43.7268 21.811 43.9884L7.0831 58.7163C6.11228 59.6871 5.83957 61.029 6.37395 62.2947C6.89777 63.5603 8.03226 64.3237 9.40643 64.3237H60.5702C61.9447 64.3237 63.0794 63.5708 63.6027 62.2947C64.1265 61.0291 63.8643 59.6877 62.8935 58.7163L48.1783 43.9884ZM61.0406 61.2247C60.9206 61.5085 60.7679 61.5301 60.5826 61.5301H9.41884C9.23352 61.5301 9.08084 61.5085 8.96081 61.2247C8.84077 60.941 8.93921 60.8209 9.06979 60.6904L23.3824 46.3778H46.6191L60.9317 60.6904C61.0628 60.8209 61.1501 60.941 61.0412 61.2247H61.0406Z" fill="#1C4492"/>
</svg>
