<svg width="23" height="35" viewBox="0 0 23 35" fill="none" xmlns="http://www.w3.org/2000/svg">
<path fill-rule="evenodd" clip-rule="evenodd" d="M19.1111 3.392C17.1039 1.33753 14.3926 0.165426 11.5538 0.125H11.4463C8.60738 0.164839 5.89564 1.33655 3.888 3.39088C1.88037 5.44521 0.73528 8.22002 0.696347 11.125C0.661409 13.1875 1.22847 15.2143 2.32497 16.9468L10.7852 34.5H12.2177L20.6752 16.9468C21.7744 15.2143 22.3415 13.1875 22.3038 11.125C22.2643 8.22025 21.1189 5.44587 19.1111 3.392ZM11.2985 2.875L11.5189 2.9025L11.7178 2.875C13.829 2.96909 15.8248 3.88718 17.2948 5.44055C18.7649 6.99392 19.5976 9.06454 19.6217 11.2268C19.6423 12.7613 19.2044 14.2657 18.3667 15.5387L18.3129 15.6322L18.2672 15.7285L11.5001 29.7673L4.73566 15.7422L4.68997 15.635L4.63622 15.5415C3.79848 14.2685 3.3606 12.7641 3.38116 11.2295C3.40408 9.06478 4.23773 6.99156 5.71029 5.43717C7.18284 3.88279 9.18206 2.96572 11.2958 2.875H11.2985ZM12.9433 8.83975C12.6498 8.63896 12.3206 8.49928 11.9744 8.42869C11.6282 8.35809 11.2717 8.35797 10.9255 8.42832C10.5792 8.49867 10.2499 8.63812 9.9563 8.83871C9.66271 9.0393 9.4106 9.29709 9.21438 9.59737C9.01815 9.89766 8.88164 10.2346 8.81265 10.5888C8.74366 10.9431 8.74354 11.3078 8.8123 11.6621C8.88105 12.0164 9.01733 12.3534 9.21336 12.6538C9.40939 12.9542 9.66132 13.2122 9.95478 13.413C10.5475 13.8185 11.2733 13.9665 11.9726 13.8244C12.6719 13.6823 13.2874 13.2618 13.6837 12.6554C14.08 12.0489 14.2246 11.3062 14.0858 10.5907C13.9469 9.87508 13.5359 9.24527 12.9433 8.83975ZM8.46322 6.55175C9.04961 6.12996 9.71253 5.83245 10.413 5.67671C11.1134 5.52097 11.8372 5.51016 12.5418 5.64491C13.2463 5.77966 13.9175 6.05724 14.5156 6.46134C15.1138 6.86543 15.627 7.38786 16.0249 7.9979C16.4228 8.60794 16.6975 9.29325 16.8327 10.0135C16.968 10.7338 16.9611 11.4745 16.8124 12.192C16.6637 12.9095 16.3763 13.5893 15.9671 14.1914C15.5579 14.7936 15.0351 15.3059 14.4295 15.6982C13.244 16.4662 11.8121 16.7295 10.4395 16.4317C9.06695 16.1339 7.86258 15.2988 7.08365 14.1047C6.30472 12.9105 6.01299 11.4521 6.27076 10.0408C6.52853 8.62957 7.31537 7.37739 8.46322 6.55175Z" fill="black"/>
</svg>
