<svg width="57" height="74" viewBox="0 0 57 74" fill="none" xmlns="http://www.w3.org/2000/svg">
<path d="M5.47578 50.4943H10.7586C11.4874 51.8191 12.2982 53.0736 13.2279 54.1823C15.7068 57.1761 18.8623 59.4949 22.4299 60.9736C21.7508 62.1365 21.205 63.2213 20.7721 64.1466H14.8942C12.2435 64.1466 10.2235 66.3011 10.2235 68.8173C10.2235 71.3837 12.3189 73.4707 14.8942 73.4707H51.9742C54.5495 73.4707 56.6449 71.3837 56.6449 68.8173C56.6449 66.242 54.5495 64.1466 51.9742 64.1466H45.6958C44.8844 62.588 44.0312 61.1091 43.1383 59.7397C50.5401 55.5594 55.2349 47.6191 55.2349 39.0454C55.2349 32.3953 52.4275 26.0961 47.5441 21.6197C47.4157 18.8993 45.8626 16.4746 43.5396 15.1677L46.9386 10.8609C48.255 9.19229 47.9727 6.75872 46.3086 5.43615C46.3069 5.43448 46.2919 5.42276 46.2902 5.42164L41.1479 1.37036C39.4582 0.0277296 37.0235 0.332415 35.7043 2.00652L20.2058 21.6851C19.6901 22.3408 19.8029 23.2894 20.4591 23.8062L21.1299 24.3352L20.6388 24.9558C18.9971 27.0301 19.3492 30.0395 21.4284 31.6789C23.5077 33.3162 26.5154 32.9591 28.1511 30.8748L28.6372 30.2548L29.3074 30.7833C29.9558 31.3 30.9116 31.1968 31.4329 30.535L33.9982 27.2732C35.4541 28.8564 37.5406 29.8118 39.7594 29.8118C40.0613 29.8118 40.3604 29.7945 40.6544 29.7616C43.1337 32.203 44.5573 35.5412 44.5573 39.0462C44.5573 46.2499 38.7046 52.1097 31.511 52.1097C29.3006 52.1097 27.1422 51.5383 25.2337 50.4947H27.683C30.5144 50.4947 32.818 48.1984 32.818 45.3753C32.818 42.5439 30.515 40.2397 27.683 40.2397H5.47587C2.65773 40.2397 0.356445 42.5222 0.356445 45.3753C0.356445 48.1979 2.65273 50.4947 5.47587 50.4947L5.47578 50.4943ZM53.6258 68.8171C53.6258 69.7184 52.8853 70.4516 51.9741 70.4516H14.8941C13.9833 70.4516 13.2423 69.7183 13.2423 68.8171C13.2423 67.9539 13.9438 67.1654 14.8941 67.1654C54.7669 67.1732 38.4626 67.1654 51.9741 67.1654C52.8848 67.1654 53.6258 67.9059 53.6258 68.8171ZM24.1315 64.1464C24.6304 63.1788 25.2381 62.1019 25.9506 61.0237C27.6058 58.4679 30.1743 55.3853 33.0071 55.2179C35.7738 55.0504 38.0996 57.811 39.7058 60.0543C40.3654 60.9834 41.2749 62.3607 42.2743 64.1464H24.1315ZM25.7761 29.0121C25.179 29.7727 24.0718 29.9167 23.2972 29.3085C22.536 28.7091 22.3965 27.6003 23.0059 26.8296L23.4998 26.2046L26.2659 28.386L25.7761 29.0121ZM29.9976 27.4764C28.8481 26.5707 23.3363 22.2264 23.5126 22.3654L38.0769 3.87401C38.3492 3.52858 38.8771 3.41977 39.2761 3.73841L44.4318 7.79926C44.7968 8.08943 44.8587 8.62403 44.5697 8.99011L40.4642 14.1921C35.7461 13.7747 31.9274 17.527 31.9257 21.9772C31.9257 22.7172 32.068 23.6497 32.3197 24.407C32.3291 24.436 32.3319 24.4667 32.342 24.4957L29.9976 27.4764ZM34.9441 21.9776C34.9446 19.3386 37.1405 17.2247 39.6868 17.1869C42.4631 17.145 44.6505 19.4129 44.5416 22.2091C44.4356 24.7237 42.3642 26.7929 39.7592 26.7929C37.0778 26.7929 34.9439 24.5926 34.9439 21.9776H34.9441ZM47.5758 39.0461C47.5758 35.2303 46.2186 31.564 43.7951 28.6873C43.8051 28.6812 43.814 28.6728 43.8241 28.6666C45.025 27.9312 46.2371 26.6298 46.8826 25.1929C50.2978 28.9664 52.2164 33.8922 52.2164 39.0462C52.2164 46.6326 48.0049 53.6534 41.3899 57.2605C40.1656 55.6796 38.9786 54.5641 38.0361 53.8832C37.9987 53.8559 37.9619 53.8179 37.9245 53.7911C43.6002 51.3084 47.5758 45.6333 47.5758 39.0469L47.5758 39.0461ZM24.0858 58.3933C20.7655 57.1165 17.8319 55.0116 15.5472 52.2521C15.0857 51.7014 14.651 51.1171 14.2447 50.5027H20.2169C22.2297 52.486 24.7336 53.8944 27.4429 54.6043C26.2107 55.6512 25.0237 57.0607 24.0857 58.3933H24.0858ZM5.47578 43.2604H27.6829C28.8498 43.2604 29.7989 44.2096 29.7989 45.377C29.7989 46.5349 28.8497 47.4774 27.6829 47.4774H5.47578C4.31785 47.4774 3.37535 46.5349 3.37535 45.377C3.37479 44.1806 4.33796 43.2604 5.47578 43.2604Z" fill="#1C4492"/>
<path d="M33.3371 57.1971H33.1764C32.3427 57.1971 31.667 57.8729 31.667 58.7066C31.667 59.5403 32.3428 60.216 33.1764 60.216H33.3371C34.1709 60.216 34.8466 59.5402 34.8466 58.7066C34.8466 57.8729 34.1708 57.1971 33.3371 57.1971Z" fill="#1C4492"/>
<path d="M41.4202 21.7457C41.4202 20.912 40.7444 20.2363 39.9108 20.2363H39.7506C38.9169 20.2363 38.2412 20.9121 38.2412 21.7457C38.2412 22.5794 38.917 23.2551 39.7506 23.2551H39.9108C40.7439 23.2546 41.4202 22.5788 41.4202 21.7457Z" fill="#1C4492"/>
</svg>
