<svg width="73" height="66" viewBox="0 0 73 66" fill="none" xmlns="http://www.w3.org/2000/svg">
<path d="M31.5314 65.4872H72.5V48.0057C72.5 43.5186 69.9906 39.6073 66.3013 37.6C67.3738 35.9007 68.0044 33.8952 68.0044 31.7406C68.0044 26.7055 64.6071 22.4582 59.9866 21.1463C60.0971 20.5213 60.1651 19.8824 60.1651 19.2272C60.1651 13.1502 55.221 8.20645 49.1444 8.20645C48.4324 8.20645 47.7382 8.28011 47.0636 8.40958C45.7126 3.84986 41.4921 0.511719 36.5 0.511719C31.3817 0.511719 27.0799 4.02401 25.8466 8.76115C25.2004 8.64285 24.5363 8.57142 23.856 8.57142C17.779 8.57142 12.8353 13.5156 12.8353 19.5921C12.8353 20.1256 12.8866 20.6463 12.9603 21.1603C8.36771 22.4901 4.99657 26.725 4.99657 31.7411C4.99657 33.8957 5.62716 35.9001 6.69971 37.5994C3.00943 39.6067 0.5 43.5186 0.5 48.0057V65.4872L31.5314 65.4872ZM41.4679 62.1049H31.5314V48.0056C31.5314 43.5475 29.0521 39.6602 25.402 37.6417C26.2854 36.74 27.3691 36.0407 28.5794 35.6043C30.6904 37.4787 33.46 38.6283 36.4986 38.6283C39.5371 38.6283 42.3066 37.4788 44.4177 35.6043C45.6281 36.0413 46.7123 36.7405 47.5951 37.6417C43.9444 39.6602 41.4657 43.5475 41.4657 48.0056L41.4663 62.1049H41.4679ZM27.9283 26.6749C27.9283 21.9483 31.7731 18.1029 36.4997 18.1029C41.2263 18.1029 45.0711 21.9483 45.0711 26.6749C45.0711 31.4015 41.2263 35.2463 36.4997 35.2463C31.7731 35.2463 27.9283 31.4015 27.9283 26.6749ZM69.1169 48.0063V62.1062L50.0154 62.1067H44.8491V48.0063C44.8491 44.527 46.963 41.5336 49.9724 40.2373C51.8787 41.8132 54.3217 42.7613 56.9836 42.7613C59.6443 42.7613 62.0874 41.8132 63.9947 40.2373C67.0036 41.5336 69.1164 44.5263 69.1164 48.0063L69.1169 48.0063ZM64.6213 31.742C64.6213 35.953 61.195 39.3805 56.9829 39.3805C52.7719 39.3805 49.3444 35.9542 49.3444 31.742C49.3444 27.5299 52.7707 24.1036 56.9829 24.1036C61.1949 24.103 64.6213 27.5299 64.6213 31.742ZM49.1441 11.5892C53.3561 11.5892 56.7826 15.0155 56.7826 19.2276C56.7826 19.7455 56.7296 20.2499 56.6313 20.7382C53.2581 20.8453 50.2658 22.4709 48.3155 24.9592C47.7636 21.1489 45.4209 17.9117 42.1586 16.1506C43.345 13.4676 46.0275 11.5892 49.1441 11.5892H49.1441ZM36.4996 3.89502C40.0269 3.89502 42.994 6.30131 43.869 9.55574C41.6826 10.7527 39.946 12.6685 38.9756 14.9837C38.1765 14.8152 37.3483 14.722 36.4996 14.722C35.5956 14.722 34.7177 14.8314 33.8707 15.0228C32.8651 12.8275 31.1659 11.014 29.0464 9.87709C29.807 6.45966 32.8573 3.89495 36.4996 3.89495V3.89502ZM23.8556 11.9542C26.8594 11.9542 29.4566 13.7019 30.7039 16.2305C27.5141 18.0077 25.2284 21.2042 24.6849 24.9593C22.7234 22.4576 19.7094 20.8265 16.3121 20.7362C16.2552 20.3628 16.2167 19.9828 16.2167 19.5928C16.2167 15.3813 19.6436 11.9543 23.8557 11.9543L23.8556 11.9542ZM16.0157 24.1032C20.2267 24.1032 23.6541 27.5295 23.6541 31.7416C23.6541 35.9526 20.2279 39.38 16.0157 39.38C11.8036 39.38 8.37729 35.9537 8.37729 31.7416C8.37729 27.5302 11.8041 24.1032 16.0157 24.1032ZM3.88171 48.006C3.88171 44.5267 5.99557 41.5333 9.005 40.237C10.9113 41.8129 13.3554 42.761 16.0161 42.761C18.6769 42.761 21.12 41.8129 23.0273 40.237C26.0367 41.5328 28.1506 44.526 28.1506 48.006V62.1059H22.9843L3.88143 62.1065L3.88171 48.006Z" fill="#1C4492"/>
</svg>
