<svg width="49" height="49" viewBox="0 0 49 49" fill="none" xmlns="http://www.w3.org/2000/svg">
<path d="M24.5 0.4375C19.7409 0.4375 15.0887 1.84874 11.1316 4.49276C7.17454 7.13678 4.09039 10.8948 2.26916 15.2917C0.447926 19.6885 -0.0285919 24.5267 0.899865 29.1944C1.82832 33.862 4.12005 38.1496 7.48525 41.5148C10.8505 44.88 15.138 47.1717 19.8057 48.1001C24.4733 49.0286 29.3115 48.5521 33.7083 46.7309C38.1052 44.9096 41.8632 41.8255 44.5072 37.8684C47.1513 33.9114 48.5625 29.2591 48.5625 24.5C48.5625 18.1182 46.0274 11.9978 41.5148 7.48524C37.0022 2.97265 30.8818 0.4375 24.5 0.4375ZM21.0625 34.1078L12.4688 25.5141L15.2016 22.7812L21.0625 28.6422L33.7984 15.9062L36.5416 18.6322L21.0625 34.1078Z" fill="#FFD66C"/>
</svg>
